<svg width="64" height="64" viewBox="0 0 64 64" fill="none" xmlns="http://www.w3.org/2000/svg">
<g clip-path="url(#clip0)">
<rect width="64" height="64" fill="#F2720C"/>
<path d="M39.3639 33.8257C39.3724 33.8306 39.3807 33.8356 39.3887 33.8407C39.7487 34.0631 39.7618 34.4057 39.4253 34.6353C39.4074 34.6477 39.3885 34.6596 39.3686 34.6711C39.3487 34.6827 39.328 34.6936 39.307 34.7041C39.0906 34.8009 38.8557 34.8495 38.6186 34.8464C38.3816 34.8432 38.148 34.7885 37.9342 34.6859C37.9254 34.6812 37.9168 34.6765 37.9083 34.6716C37.8825 34.6567 37.8585 34.6413 37.836 34.6252C37.5222 34.4026 37.5251 34.0805 37.8468 33.861C37.8647 33.8488 37.8836 33.8369 37.9035 33.8253C37.9234 33.8137 37.9441 33.8026 37.9657 33.7923C38.173 33.7002 38.3971 33.6519 38.624 33.6504C38.8509 33.649 39.0756 33.6945 39.284 33.784C39.3115 33.7969 39.3381 33.8108 39.3639 33.8257Z" fill="#D14A11"/>
<path d="M39.4254 34.6353L50.9295 41.2766C50.9085 41.2871 50.8879 41.298 50.8674 41.3096C50.8468 41.3211 50.8286 41.3332 50.8106 41.3454L39.3072 34.7041C39.3282 34.6936 39.3488 34.6827 39.3687 34.6711C39.3886 34.6596 39.4075 34.6476 39.4254 34.6353Z" fill="#D14A11"/>
<path d="M48.4379 36.5069V40.9842L29.7678 30.275L29.7808 25.7128L48.4379 36.5069Z" fill="#FFB936" stroke="#342B28" stroke-width="0.248737" stroke-linejoin="round"/>
<path d="M48.438 36.5069L51.9912 34.3818L51.9782 38.9439L48.438 40.9842V36.5069Z" fill="#FFB936" stroke="#342B28" stroke-width="0.248737" stroke-linejoin="round"/>
<path d="M29.7812 25.7129L33.3671 23.6291L51.9916 34.3819L48.4057 36.4658L29.7812 25.7129Z" fill="#FFB936" stroke="#342B28" stroke-width="0.248737" stroke-linejoin="round"/>
<path d="M57.3831 48.4493L57.3925 53.048L38.7372 42.2279V37.7506L57.3831 48.4493Z" fill="#FFB936" stroke="#342B28" stroke-width="0.248737" stroke-linejoin="round"/>
<path d="M57.3832 48.4493L60.9992 46.4565V50.9337L57.3925 53.048L57.3832 48.4493Z" fill="#FFB936" stroke="#342B28" stroke-width="0.248737" stroke-linejoin="round"/>
<path d="M38.7595 37.6965L42.3453 35.6126L61 46.4564L57.384 48.4493L38.7595 37.6965Z" fill="#FFB936" stroke="#342B28" stroke-width="0.248737" stroke-linejoin="round"/>
<path d="M43.6175 48.542L43.6046 53.1042L25.0566 42.3523V37.7506L43.6175 48.542Z" fill="#FFB936" stroke="#342B28" stroke-width="0.248737" stroke-linejoin="round"/>
<path d="M43.5876 48.5707L47.1942 46.4565V51.0581L43.5876 53.048V48.5707Z" fill="#FFB936" stroke="#342B28" stroke-width="0.248737" stroke-linejoin="round"/>
<path d="M25.0566 37.7506L28.5789 35.7053L47.2034 46.4582L43.6176 48.542L25.0566 37.7506Z" fill="#FFB936" stroke="#342B28" stroke-width="0.248737" stroke-linejoin="round"/>
<path d="M3.01401 28.4095L8.53001 25.2039L12.0039 27.2096L6.48787 30.4152L3.01401 28.4095Z" fill="#FFB936" stroke="#342B28" stroke-width="0.248737" stroke-linejoin="round"/>
<path d="M6.52568 30.4128L11.9979 27.1793V39.243L6.52568 42.2279V30.4128Z" fill="#FFB936" stroke="#342B28" stroke-width="0.248737" stroke-linejoin="round"/>
<path d="M6.52568 42.1657L11.9699 39.1883L36.2729 53.2197L30.8087 56.1572L6.52568 42.1657Z" fill="#FFB936" stroke="#342B28" stroke-width="0.248737" stroke-linejoin="round"/>
<path d="M34.2658 46.4528L34.2599 62.5L3.04337 44.3422V28.423L6.52569 30.4129V42.1035L30.7776 55.9706V44.4665L34.2658 46.4528Z" fill="#FFB936" stroke="#342B28" stroke-width="0.248737" stroke-linejoin="round"/>
<path d="M34.2599 46.4098L39.7321 43.2228V59.2664L34.2599 62.5V46.4098Z" fill="#FFB936" stroke="#342B28" stroke-width="0.248737" stroke-linejoin="round"/>
<path d="M30.7909 44.4466L36.3069 41.241L39.7819 43.2472L34.2658 46.4528L30.7909 44.4466Z" fill="#FFB936" stroke="#342B28" stroke-width="0.248737" stroke-linejoin="round"/>
<path d="M39.496 16.1382V20.6155L20.8407 31.3112V26.834L39.496 16.1382ZM20.8407 31.3112L17.234 29.3213V24.7197L20.8407 26.834V31.3112Z" fill="#FFB936" stroke="#342B28" stroke-width="0.248737" stroke-linejoin="round"/>
<path d="M20.842 26.834L17.2639 24.7135L35.8868 13.9618L39.4973 16.1383L20.842 26.834Z" fill="#FFB936" stroke="#342B28" stroke-width="0.248737" stroke-linejoin="round"/>
<path d="M25.2496 2.79596V-22.7531M25.2496 2.76859L20.8482 26.7979L25.2496 2.76859ZM25.2496 2.76859L39.353 16.0561L25.2496 2.76859ZM25.2496 2.76859L17.2626 24.7135L25.2496 2.76859ZM25.2496 2.76859L35.8856 13.9618L25.2496 2.76859Z" stroke="#342B28" stroke-width="0.248737" stroke-linejoin="round"/>
</g>
<defs>
<clipPath id="clip0">
<rect width="64" height="64" fill="white"/>
</clipPath>
</defs>
</svg>
